<svg xmlns="http://www.w3.org/2000/svg" width="128.659" height="65.191" viewBox="0 0 128.659 65.191">
  <g id="AchrafLogoFinal" transform="translate(-0.115 -0.591)">
    <g id="Group_1" data-name="Group 1" transform="translate(0.115 0.591)">
      <path id="Path_4" data-name="Path 4" d="M70.071,65.782a14.732,14.732,0,0,1-12.862-7.205C53.3,52.314,53.1,41.809,61.317,32.651c4.04-4.444,10.64-8.754,18.653-11.717-2.626-5.185-7.879-9.562-18.047-10.168C28.522,8.812,10.139,61.741,9.937,62.28A5.047,5.047,0,0,1,.374,59.048C1.182,56.556,21.384-1.76,62.394.664c13.468.808,23.03,7,27.407,17.508a60.48,60.48,0,0,1,15.286-.943,5.062,5.062,0,1,1-.673,10.1A51.7,51.7,0,0,0,92.225,28v.067c1.683,16.5-6.667,34.208-17.508,37.1A18.741,18.741,0,0,1,70.071,65.782ZM82.326,30.832c-6.2,2.424-10.976,5.724-13.535,8.552-4.714,5.252-4.848,10.909-3.03,13.872,1.347,2.155,3.5,2.9,6.33,2.088C76.67,54.132,82.8,42.684,82.326,30.832Z" transform="translate(-0.115 -0.591)" fill="#fff"/>
    </g>
    <g id="Group_2" data-name="Group 2" transform="translate(118.572 17.92)">
      <path id="Path_5" data-name="Path 5" d="M181.059,36.544a5,5,0,0,1-3.569-1.481,5.081,5.081,0,0,1,0-7.138l.135-.135a5.047,5.047,0,0,1,7.138,7.138l-.135.135A5.291,5.291,0,0,1,181.059,36.544Z" transform="translate(-176.025 -26.325)" fill="#fff"/>
    </g>
  </g>
</svg>
